<svg width="22" height="20" viewBox="0 0 22 20" fill="none" xmlns="http://www.w3.org/2000/svg">
<path fill-rule="evenodd" clip-rule="evenodd" d="M21.0001 10.0138V7.7476C20.0527 7.7476 19.2847 6.979 19.2847 6.0316C19.2847 5.0842 20.0527 4.3156 21.0001 4.3156V2.0494C21.0001 1.4722 20.5279 1 19.9507 1H5.64852C5.07132 1 4.59912 1.4722 4.59912 2.0494V4.3156C5.54652 4.3156 6.31452 5.0842 6.31452 6.0316C6.31452 6.979 5.54652 7.7476 4.59912 7.7476V10.0138C4.59912 10.591 5.07132 11.0632 5.64852 11.0632H19.9507C20.5279 11.0632 21.0001 10.591 21.0001 10.0138Z" fill="white" stroke="black" stroke-width="2" stroke-linejoin="round"/>
<path d="M17.1378 3.48279V9.68968" stroke="black" stroke-linecap="square" stroke-dasharray="1.8"/>
<path d="M7.82772 3.48279V9.68968" stroke="black" stroke-linecap="square" stroke-dasharray="1.8"/>
<path fill-rule="evenodd" clip-rule="evenodd" d="M15.1348 18.0016L16.0444 15.9256C15.2332 15.5704 14.8834 14.5786 15.2638 13.711C15.6448 12.8428 16.6102 12.427 17.422 12.7828L18.331 10.7068C18.5626 10.1782 18.3478 9.56858 17.8534 9.35198L5.60924 3.98678C5.11544 3.77018 4.52144 4.02578 4.28984 4.55438L3.37964 6.62978C4.19144 6.98558 4.54064 7.97738 4.16024 8.84498C3.77984 9.71318 2.81444 10.1284 2.00264 9.77318L1.09364 11.8492C0.861435 12.3772 1.07624 12.9874 1.57064 13.2034L13.8154 18.5692C14.3092 18.7858 14.9026 18.5302 15.1348 18.0016Z" fill="white" stroke="black" stroke-width="2" stroke-linejoin="round"/>
<path d="M7.20668 7.20689L4.72392 12.7931" stroke="black" stroke-linecap="square" stroke-dasharray="1.8"/>
<path d="M14.6554 10.3103L12.1726 15.8966" stroke="black" stroke-linecap="square" stroke-dasharray="1.8"/>
</svg>
