<svg width="25" height="23" viewBox="0 0 25 23" fill="none" xmlns="http://www.w3.org/2000/svg">
<path fill-rule="evenodd" clip-rule="evenodd" d="M17.6656 2.10669C16.516 2.10669 15.4619 2.47388 14.5326 3.1978C13.6418 3.89205 13.0488 4.77608 12.6996 5.41888C12.3507 4.77608 11.7576 3.89205 10.8669 3.1978C9.93757 2.47388 8.88348 2.1069 7.73383 2.1069C4.52536 2.1069 2.10571 4.75111 2.10571 8.25757C2.10571 12.0458 5.12434 14.6377 9.69391 18.5613C10.47 19.2276 11.3495 19.9829 12.2638 20.7884C12.3843 20.8947 12.5392 20.9532 12.6996 20.9532C12.8602 20.9532 13.0151 20.8947 13.1357 20.7884C14.0499 19.9827 14.9294 19.2276 15.7057 18.5607C20.2751 14.6375 23.2935 12.0456 23.2935 8.25735C23.2935 4.75089 20.8741 2.10669 17.6656 2.10669Z" stroke="black" stroke-width="3"/>
<path d="M19.5509 10.3311C20.4355 8.57241 19.7388 6.42819 17.9932 5.53711" stroke="black" stroke-width="2" stroke-linecap="round" stroke-linejoin="round"/>
</svg>
