<svg width="10" height="13" viewBox="0 0 10 13" fill="none" xmlns="http://www.w3.org/2000/svg">
<path d="M4.01874 10.6261V3.06488L9.08304 1.2608V8.77778" stroke="black" stroke-width="1.5"/>
<path fill-rule="evenodd" clip-rule="evenodd" d="M4.01874 10.5641C4.01874 11.3135 3.41135 11.9211 2.66191 11.9211C1.91248 11.9211 1.30493 11.3135 1.30493 10.5641C1.30493 9.81482 1.91248 9.20728 2.66191 9.20728C3.41135 9.20728 4.01874 9.81482 4.01874 10.5641Z" fill="#D9FFF0" stroke="black" stroke-width="1.5"/>
<path fill-rule="evenodd" clip-rule="evenodd" d="M9.08301 8.79732C9.08301 9.54675 8.47562 10.1543 7.72618 10.1543C6.97675 10.1543 6.3692 9.54675 6.3692 8.79732C6.3692 8.04804 6.97675 7.44049 7.72618 7.44049C8.47562 7.44049 9.08301 8.04804 9.08301 8.79732Z" fill="#D9FFF0" stroke="black" stroke-width="1.5"/>
<path d="M4.05884 5.31734L9.08299 3.55432" stroke="black" stroke-width="1.5"/>
</svg>
