<svg width="25" height="22" viewBox="0 0 25 22" fill="none" xmlns="http://www.w3.org/2000/svg">
<path fill-rule="evenodd" clip-rule="evenodd" d="M21.5892 20.9744H3.49215C2.26593 20.9744 1.26208 19.9706 1.26208 18.7444V3.49209C1.26208 2.26587 2.26593 1.26202 3.49215 1.26202H21.5892C22.8154 1.26202 23.8193 2.26587 23.8193 3.49209V18.7444C23.8193 19.9706 22.8154 20.9744 21.5892 20.9744Z" stroke="white" stroke-width="2"/>
<path d="M1.51343 7.71554H23.5681" stroke="white" stroke-width="2"/>
<path fill-rule="evenodd" clip-rule="evenodd" d="M5.99909 4.61835C5.99909 5.21993 5.51081 5.70821 4.90923 5.70821C4.30713 5.70821 3.81885 5.21993 3.81885 4.61835C3.81885 4.01678 4.30713 3.52849 4.90923 3.52849C5.51081 3.52849 5.99909 4.01678 5.99909 4.61835Z" fill="white"/>
<path fill-rule="evenodd" clip-rule="evenodd" d="M9.77082 4.61835C9.77082 5.21993 9.28253 5.70821 8.68044 5.70821C8.07834 5.70821 7.59058 5.21993 7.59058 4.61835C7.59058 4.01678 8.07834 3.52849 8.68044 3.52849C9.28253 3.52849 9.77082 4.01678 9.77082 4.61835Z" fill="white"/>
<path fill-rule="evenodd" clip-rule="evenodd" d="M13.1064 4.61835C13.1064 5.21993 12.6181 5.70821 12.016 5.70821C11.4139 5.70821 10.9261 5.21993 10.9261 4.61835C10.9261 4.01678 11.4139 3.52849 12.016 3.52849C12.6181 3.52849 13.1064 4.01678 13.1064 4.61835Z" fill="white"/>
<path fill-rule="evenodd" clip-rule="evenodd" d="M12.9681 16.1277L14.6947 18.1757L16.0982 17.002L14.3721 14.9539L16.7658 14.1021L9.44678 10.4423L11.702 18.2911L12.9681 16.1277Z" fill="white"/>
</svg>
