<svg width="17" height="12" viewBox="0 0 17 12" fill="none" xmlns="http://www.w3.org/2000/svg">
<path fill-rule="evenodd" clip-rule="evenodd" d="M8.49853 2.99922C8.24609 3.00233 7.99659 3.04274 7.75296 3.11733C8.21087 3.78555 8.07291 4.72106 7.44181 5.2059C6.94867 5.58819 6.27648 5.58819 5.78041 5.2059C5.36946 6.80342 6.25887 8.44755 7.7647 8.87957C9.27346 9.31158 10.8263 8.37296 11.2372 6.77545C11.6452 5.17793 10.7558 3.53691 9.24704 3.10179C9.00341 3.03341 8.75391 2.99611 8.50147 2.99611L8.49853 2.99922ZM8.49853 10.4988C6.1532 10.4988 4.24817 8.48485 4.24817 5.99845C4.24817 3.51515 6.1532 1.50117 8.49853 1.50117C10.8468 1.50117 12.7489 3.51515 12.7489 5.99845C12.7489 8.48485 10.8468 10.4988 8.49853 10.4988ZM16.8965 5.54157C15.3056 2.16939 12.0591 0.027972 8.49853 0C4.93797 0.027972 1.69442 2.16939 0.103471 5.54157C-0.0344902 5.83061 -0.0344902 6.16939 0.103471 6.45532C1.69442 9.82751 4.93797 11.972 8.49853 12C12.0591 11.972 15.3056 9.82751 16.8965 6.45532C17.0345 6.16939 17.0345 5.83061 16.8965 5.54157Z" fill="white"/>
</svg>
