<svg width="21" height="21" viewBox="0 0 21 21" fill="none" xmlns="http://www.w3.org/2000/svg">
<path d="M2.93945 16.3837L1.87879 15.323L0.818133 16.3837L1.87879 17.4443L2.93945 16.3837ZM8.60096 10.7222L9.66162 11.7828L10.7223 10.7222L9.66162 9.6615L8.60096 10.7222ZM5.06077 18.505L4.00011 19.5656L5.06077 20.6263L6.12143 19.5656L5.06077 18.505ZM10.7223 12.8435L11.7829 11.7828L10.7223 10.7222L9.66162 11.7828L10.7223 12.8435ZM16.3838 18.505L15.3231 19.5656L16.3838 20.6263L17.4444 19.5656L16.3838 18.505ZM18.5051 16.3837L19.5658 17.4443L20.6264 16.3837L19.5658 15.323L18.5051 16.3837ZM12.8436 10.7222L11.7829 9.6615L10.7223 10.7222L11.7829 11.7828L12.8436 10.7222ZM18.5051 5.06065L19.5658 6.12131L20.6264 5.06065L19.5658 3.99999L18.5051 5.06065ZM16.3838 2.93933L17.4444 1.87867L16.3838 0.818011L15.3231 1.87867L16.3838 2.93933ZM10.7223 8.60084L9.66162 9.6615L10.7223 10.7222L11.7829 9.6615L10.7223 8.60084ZM5.06077 2.93933L6.12143 1.87867L5.06077 0.818011L4.00011 1.87867L5.06077 2.93933ZM2.93945 5.06065L1.87879 3.99999L0.818133 5.06065L1.87879 6.12131L2.93945 5.06065ZM4.00011 17.4443L9.66162 11.7828L7.5403 9.6615L1.87879 15.323L4.00011 17.4443ZM6.12143 17.4443L4.00011 15.323L1.87879 17.4443L4.00011 19.5656L6.12143 17.4443ZM9.66162 11.7828L4.00011 17.4443L6.12143 19.5656L11.7829 13.9041L9.66162 11.7828ZM17.4444 17.4443L11.7829 11.7828L9.66162 13.9041L15.3231 19.5656L17.4444 17.4443ZM17.4444 15.323L15.3231 17.4443L17.4444 19.5656L19.5658 17.4443L17.4444 15.323ZM11.7829 11.7828L17.4444 17.4443L19.5658 15.323L13.9043 9.6615L11.7829 11.7828ZM17.4444 3.99999L11.7829 9.6615L13.9043 11.7828L19.5658 6.12131L17.4444 3.99999ZM15.3231 3.99999L17.4444 6.12131L19.5658 3.99999L17.4444 1.87867L15.3231 3.99999ZM11.7829 9.6615L17.4444 3.99999L15.3231 1.87867L9.66162 7.54018L11.7829 9.6615ZM4.00011 3.99999L9.66162 9.6615L11.7829 7.54018L6.12143 1.87867L4.00011 3.99999ZM4.00011 6.12131L6.12143 3.99999L4.00011 1.87867L1.87879 3.99999L4.00011 6.12131ZM9.66162 9.6615L4.00011 3.99999L1.87879 6.12131L7.5403 11.7828L9.66162 9.6615Z" fill="white"/>
</svg>
