<svg width="21" height="25" viewBox="0 0 21 25" fill="none" xmlns="http://www.w3.org/2000/svg">
<path fill-rule="evenodd" clip-rule="evenodd" d="M2.16382 19.414V9.55616C2.16382 6.04053 5.23473 3.16431 8.98833 3.16431H11.9188C15.6724 3.16431 18.7436 6.04053 18.7436 9.55616V19.414H2.16382Z" stroke="black" stroke-width="3"/>
<path fill-rule="evenodd" clip-rule="evenodd" d="M14.1573 19.4139C14.1573 21.3297 12.4992 22.883 10.4535 22.883C8.40808 22.883 6.75 21.3297 6.75 19.4139H14.1573Z" stroke="black" stroke-width="3"/>
<path fill-rule="evenodd" clip-rule="evenodd" d="M8.1394 2.09302V2.5875H12.6095V2.09302C12.6095 0.938875 11.6067 0 10.3745 0C9.14221 0 8.1394 0.938875 8.1394 2.09302Z" fill="black"/>
<path d="M14.856 11.3862C15.258 9.22574 13.7169 7.17291 11.4102 6.79633" stroke="black" stroke-width="2" stroke-linecap="round" stroke-linejoin="round"/>
</svg>
