<svg width="36" height="24" viewBox="0 0 36 24" fill="none" xmlns="http://www.w3.org/2000/svg">
<path fill-rule="evenodd" clip-rule="evenodd" d="M9.18745 8.54652C9.18745 8.20992 9.33025 8.03603 9.62605 8.03603H10.9924C11.2882 8.03603 11.431 8.20992 11.431 8.54652V10.6778L11.9614 10.6574C12.2164 10.6467 12.349 10.7594 12.349 11.0042V12.3705C12.349 12.5847 12.2164 12.7071 11.9614 12.7173L11.431 12.7377V14.9303C11.431 15.2669 11.2882 15.4403 10.9924 15.4403H9.62605C9.33025 15.4403 9.18745 15.2669 9.18745 14.9303V8.54652ZM6.19934 13.7879L5.07782 15.6035C4.95542 15.7973 4.80242 15.7866 4.62902 15.6545L3.49682 14.7977C3.30302 14.6549 3.27242 14.4815 3.40502 14.2775L4.91462 11.9324C5.03702 11.7381 5.07782 11.5443 5.07782 11.2995V8.32163C5.07782 7.96512 5.21042 7.83203 5.49554 7.83203H6.90314C7.18874 7.83203 7.32134 7.96512 7.32134 8.32163V11.3505C7.32134 11.5953 7.36214 11.7891 7.48454 11.9829L8.86105 14.1041C8.98345 14.2983 9.01405 14.4407 8.82025 14.5937L7.66814 15.4505C7.50494 15.5627 7.36214 15.5321 7.23974 15.3587L6.19934 13.7879Z" fill="white"/>
<path fill-rule="evenodd" clip-rule="evenodd" d="M18.725 8.34249C18.725 8.00589 18.8678 7.832 19.1636 7.832H20.5304C20.8257 7.832 20.9685 8.00589 20.9685 8.34249V9.413L21.4989 9.3926C21.7539 9.3824 21.8865 9.4946 21.8865 9.7394V11.1057C21.8865 11.3204 21.7539 11.4428 21.4989 11.4525L20.9685 11.4729V12.6862C20.9685 13.0233 20.8257 13.1967 20.5304 13.1967H19.1636C18.8678 13.1967 18.725 13.0233 18.725 12.6862V8.34249ZM18.4598 15.5417C18.4598 15.2464 18.2257 15.022 17.7254 15.022C17.2261 15.022 16.9915 15.2464 16.9915 15.5417C16.9915 15.838 17.2261 16.0624 17.7254 16.0624C18.2257 16.0624 18.4598 15.838 18.4598 15.5417ZM14.8903 15.5417C14.8903 14.206 16.0327 13.4614 17.7254 13.4614C19.4186 13.4614 20.5605 14.206 20.5605 15.5417C20.5605 16.8779 19.4186 17.6221 17.7254 17.6221C16.0327 17.6221 14.8903 16.8779 14.8903 15.5417ZM15.4819 11.2689V11.5851L17.7769 11.5137C18.0217 11.5035 18.1441 11.6157 18.1441 11.8401V12.7989C18.1441 13.0335 18.0217 13.1151 17.7769 13.1253L13.6565 13.2273C13.3607 13.2375 13.249 13.0942 13.2383 12.7377L13.2082 10.4126C13.1975 10.0556 13.3102 9.95312 13.6259 9.923L15.9511 9.668L15.9617 9.36249L13.4326 9.4334C13.1878 9.44409 13.0654 9.3416 13.0654 9.107V8.1584C13.0654 7.92429 13.1878 7.84269 13.4326 7.832L17.8682 7.73049C18.1849 7.72029 18.2966 7.86309 18.2869 8.22009L18.2053 10.5758C18.1946 10.9323 18.0926 11.0241 17.7973 11.0547L15.4819 11.2689Z" fill="white"/>
<path fill-rule="evenodd" clip-rule="evenodd" d="M30.4638 12.6256L29.9742 12.6358V14.9298C29.9742 15.2664 29.8314 15.4403 29.5356 15.4403H28.4243C28.1285 15.4403 27.9857 15.2664 27.9857 14.9298V8.54654C27.9857 8.20945 28.1285 8.03605 28.4243 8.03605H29.5356C29.8314 8.03605 29.9742 8.20945 29.9742 8.54654V10.5754L30.4638 10.5652V8.44405C30.4638 8.10745 30.6066 7.93454 30.9024 7.93454H32.0137C32.3095 7.93454 32.4523 8.10745 32.4523 8.44405V14.8283C32.4523 15.1649 32.3095 15.3378 32.0137 15.3378H30.9024C30.6066 15.3378 30.4638 15.1649 30.4638 14.8283V12.6256ZM25.7421 12.6358C25.7421 12.2686 25.5075 12.0136 25.0689 12.0136C24.6303 12.0136 24.3957 12.2686 24.3957 12.6358C24.3957 12.9928 24.6303 13.2473 25.0689 13.2473C25.5075 13.2473 25.7421 12.9928 25.7421 12.6358ZM22.5908 12.6358C22.5908 11.1364 23.6006 10.1878 25.0689 10.1878C26.5377 10.1878 27.5471 11.1364 27.5471 12.6358C27.5471 14.1449 26.5377 15.0731 25.0689 15.0731C23.6006 15.0731 22.5908 14.1449 22.5908 12.6358ZM27.5165 9.43345C27.5165 9.78997 27.4247 9.88225 27.1289 9.89245L22.8866 9.99397C22.601 10.0047 22.499 9.89245 22.499 9.53545V8.59705C22.499 8.24005 22.601 8.14825 22.8866 8.13854L23.8964 8.11765V7.74025C23.8964 7.38325 24.0285 7.28174 24.3141 7.28174H25.7217C26.0073 7.28174 26.1399 7.38325 26.1399 7.74025V8.06665L27.1289 8.03605C27.4247 8.02585 27.5165 8.13854 27.5165 8.49505V9.43345Z" fill="white"/>
<path fill-rule="evenodd" clip-rule="evenodd" d="M1.24316 22.3984H34.7395V1.24316H1.24316V22.3984Z" stroke="white" stroke-width="2" stroke-linecap="round" stroke-linejoin="round"/>
</svg>
