<svg width="27" height="22" viewBox="0 0 27 22" fill="none" xmlns="http://www.w3.org/2000/svg">
<path fill-rule="evenodd" clip-rule="evenodd" d="M17.933 9.49188C17.933 12.0082 15.893 14.0482 13.3766 14.0482C10.8603 14.0482 8.82031 12.0082 8.82031 9.49188C8.82031 6.97555 10.8603 4.93555 13.3766 4.93555C15.893 4.93555 17.933 6.97555 17.933 9.49188Z" fill="white"/>
<path fill-rule="evenodd" clip-rule="evenodd" d="M14.752 11.2939C14.752 12.0533 14.1363 12.6689 13.377 12.6689C12.6176 12.6689 12.002 12.0533 12.002 11.2939C12.002 10.5346 12.6176 9.91895 13.377 9.91895C14.1363 9.91895 14.752 10.5346 14.752 11.2939Z" fill="black"/>
<path fill-rule="evenodd" clip-rule="evenodd" d="M18.5494 1.1665C16.6994 1.1665 14.9971 2.3315 15.3364 4.1805L17.1601 16.8262L25.3034 14.6628L22.1804 4.1805C21.7281 2.3315 20.3994 1.1665 18.5494 1.1665Z" fill="black"/>
<path fill-rule="evenodd" clip-rule="evenodd" d="M18.5494 1.1665C16.6994 1.1665 14.9971 2.3315 15.3364 4.1805L17.1601 16.8262L25.3034 14.6628L22.1804 4.1805C21.7281 2.3315 20.3994 1.1665 18.5494 1.1665Z" stroke="white" stroke-width="2"/>
<path fill-rule="evenodd" clip-rule="evenodd" d="M25.5924 16.2573C25.5924 18.6003 23.6931 20.5 21.3501 20.5C19.0068 20.5 17.1074 18.6003 17.1074 16.2573C17.1074 13.9143 19.0068 12.0146 21.3501 12.0146C23.6931 12.0146 25.5924 13.9143 25.5924 16.2573Z" fill="black"/>
<path fill-rule="evenodd" clip-rule="evenodd" d="M25.5924 16.2573C25.5924 18.6003 23.6931 20.5 21.3501 20.5C19.0068 20.5 17.1074 18.6003 17.1074 16.2573C17.1074 13.9143 19.0068 12.0146 21.3501 12.0146C23.6931 12.0146 25.5924 13.9143 25.5924 16.2573Z" stroke="white" stroke-width="2" stroke-linejoin="round"/>
<path fill-rule="evenodd" clip-rule="evenodd" d="M8.19931 1.2085C10.0493 1.2085 11.7516 2.37316 11.4123 4.2225L9.58865 16.8682L1.44531 14.7048L4.56831 4.2225C5.02065 2.37316 6.34931 1.2085 8.19931 1.2085Z" fill="black"/>
<path fill-rule="evenodd" clip-rule="evenodd" d="M8.19931 1.2085C10.0493 1.2085 11.7516 2.37316 11.4123 4.2225L9.58865 16.8682L1.44531 14.7048L4.56831 4.2225C5.02065 2.37316 6.34931 1.2085 8.19931 1.2085Z" stroke="white" stroke-width="2"/>
<path fill-rule="evenodd" clip-rule="evenodd" d="M1.16699 16.2573C1.16699 18.6003 3.06633 20.5 5.40966 20.5C7.75266 20.5 9.65199 18.6003 9.65199 16.2573C9.65199 13.9143 7.75266 12.0146 5.40966 12.0146C3.06633 12.0146 1.16699 13.9143 1.16699 16.2573Z" fill="black"/>
<path fill-rule="evenodd" clip-rule="evenodd" d="M1.16699 16.2573C1.16699 18.6003 3.06633 20.5 5.40966 20.5C7.75266 20.5 9.65199 18.6003 9.65199 16.2573C9.65199 13.9143 7.75266 12.0146 5.40966 12.0146C3.06633 12.0146 1.16699 13.9143 1.16699 16.2573Z" stroke="white" stroke-width="2" stroke-linejoin="round"/>
<path d="M3.58887 16.3247C3.58887 17.3667 4.4322 18.2104 5.47453 18.2104" stroke="white" stroke-linecap="round"/>
<path d="M19.5996 16.3247C19.5996 17.3667 20.4429 18.2104 21.4853 18.2104" stroke="white" stroke-linecap="round"/>
</svg>
