<svg width="24" height="23" viewBox="0 0 24 23" fill="none" xmlns="http://www.w3.org/2000/svg">
<path d="M22.9884 10.4751C22.9884 16.5137 18.0932 21.4089 12.0546 21.4089C6.01621 21.4089 1.12109 16.5137 1.12109 10.4751" stroke="white" stroke-width="2" stroke-linecap="round"/>
<path d="M7.29395 14.1997C7.7117 16.231 9.6934 17.5369 11.7246 17.1192" stroke="white" stroke-width="2" stroke-linecap="round"/>
<path fill-rule="evenodd" clip-rule="evenodd" d="M22.0236 4.86436C22.0236 7.41757 19.9539 9.48702 17.401 9.48702C14.848 9.48702 12.7783 7.41757 12.7783 4.86436C12.7783 2.31139 14.848 0.241699 17.401 0.241699C19.9539 0.241699 22.0236 2.31139 22.0236 4.86436Z" fill="white"/>
<path fill-rule="evenodd" clip-rule="evenodd" d="M11.2512 4.86436C11.2512 7.41757 9.18149 9.48702 6.62852 9.48702C4.07555 9.48702 2.00586 7.41757 2.00586 4.86436C2.00586 2.31139 4.07555 0.241699 6.62852 0.241699C9.18149 0.241699 11.2512 2.31139 11.2512 4.86436Z" fill="white"/>
<path d="M15.1973 3.74277C15.1973 3.17319 15.6583 2.71191 16.2281 2.71191" stroke="black" stroke-width="2" stroke-linecap="round" stroke-linejoin="round"/>
<path d="M4.6748 3.74277C4.6748 3.17319 5.13584 2.71191 5.70566 2.71191" stroke="black" stroke-width="2" stroke-linecap="round" stroke-linejoin="round"/>
<path d="M13.1844 3.4985C12.4616 2.77589 11.292 2.77589 10.5693 3.4985" stroke="white" stroke-width="2" stroke-linecap="round" stroke-linejoin="round"/>
<path d="M22.8838 3.74295H21.2988" stroke="white" stroke-width="2" stroke-linecap="round" stroke-linejoin="round"/>
<path d="M2.81031 3.74295H1.22559" stroke="white" stroke-width="2" stroke-linecap="round" stroke-linejoin="round"/>
</svg>
