<svg width="27" height="24" viewBox="0 0 27 24" fill="none" xmlns="http://www.w3.org/2000/svg">
<mask id="mask0" mask-type="alpha" maskUnits="userSpaceOnUse" x="0" y="0" width="27" height="24">
<path fill-rule="evenodd" clip-rule="evenodd" d="M0 0.246094H26.2888V23.9999H0V0.246094Z" fill="white"/>
</mask>
<g mask="url(#mask0)">
<path fill-rule="evenodd" clip-rule="evenodd" d="M19.0739 0.249499C17.6478 0.293414 16.3542 0.792818 15.2288 1.73341C14.1499 2.6352 13.4474 3.7632 13.0383 4.58022C12.5812 3.78975 11.8124 2.70746 10.6817 1.87384C9.50199 1.00448 8.18074 0.585754 6.75463 0.629924C2.77502 0.752733 -0.126967 4.15103 0.00427919 8.53435C0.146085 13.27 3.98716 16.3946 9.8022 21.1244C10.7896 21.9276 11.9089 22.8384 13.073 23.8101C13.2264 23.9385 13.4208 24.0057 13.6199 23.9995C13.819 23.9934 14.0086 23.9143 14.1542 23.7769C15.2582 22.7347 16.3207 21.7568 17.2591 20.8936C22.7797 15.8143 26.4267 12.4586 26.2849 7.72295C26.1536 3.33937 23.0535 0.12669 19.0739 0.249499Z" fill="#FF3685"/>
</g>
<path d="M22.8035 10.4C23.7822 8.29321 22.886 5.78853 20.7998 4.80005" stroke="white" stroke-width="2" stroke-linecap="round" stroke-linejoin="round"/>
</svg>
