<svg width="26" height="26" viewBox="0 0 26 26" fill="none" xmlns="http://www.w3.org/2000/svg">
<path fill-rule="evenodd" clip-rule="evenodd" d="M24 13C24 19.0749 19.0756 24 13 24C6.92514 24 2 19.0749 2 13C2 6.92514 6.92514 2 13 2C19.0756 2 24 6.92514 24 13Z" stroke="black" stroke-width="3"/>
<path fill-rule="evenodd" clip-rule="evenodd" d="M12.9691 15.92C14.0166 15.92 14.7041 16.6892 14.7041 17.6058C14.7041 18.0634 14.5404 18.4732 14.2294 18.7842C13.9184 19.0952 13.4929 19.2752 12.9691 19.2752C12.429 19.2752 11.9708 19.0952 11.6925 18.7842C11.3815 18.4732 11.2179 18.0634 11.2179 17.6058C11.2179 16.6892 11.8562 15.92 12.9691 15.92ZM13.5911 10.5346C13.5911 10.1588 13.2801 9.96173 12.4945 9.96173C11.9544 9.96173 11.5125 10.0599 11.1688 10.1909C10.7923 10.3388 10.4977 10.5182 10.2195 10.6655C9.90851 10.8455 9.69574 10.6825 9.58117 10.3545L9.09016 8.6851C8.97559 8.29292 9.05743 8.09589 9.33567 7.91585C9.77758 7.65398 10.2025 7.42484 10.7923 7.24543C11.3652 7.06476 12.069 6.9502 13.051 6.9502C14.2949 6.9502 15.343 7.19633 16.1116 7.73581C16.8481 8.30866 17.29 9.15974 17.29 10.4206C17.29 11.3372 17.0118 12.0082 16.6354 12.4829C16.2595 12.9903 15.7679 13.3012 15.3751 13.4813C15.0478 13.6279 14.9496 13.6607 14.8023 13.7098V14.4797C14.8023 15.0525 14.6549 15.2162 14.1803 15.2162H11.8726C11.4143 15.2162 11.2506 15.0525 11.2506 14.4797L11.2342 12.0246C11.2342 11.5166 11.3979 11.3372 11.8562 11.3372C12.8873 11.3372 13.5911 11.0753 13.5911 10.5346Z" fill="black"/>
</svg>
