<svg width="21" height="21" viewBox="0 0 21 21" fill="none" xmlns="http://www.w3.org/2000/svg">
<path d="M2.93933 16.3837L1.87867 15.323L0.818011 16.3837L1.87867 17.4443L2.93933 16.3837ZM8.60084 10.7222L9.6615 11.7828L10.7222 10.7222L9.6615 9.6615L8.60084 10.7222ZM5.06065 18.505L3.99999 19.5656L5.06065 20.6263L6.12131 19.5656L5.06065 18.505ZM10.7222 12.8435L11.7828 11.7828L10.7222 10.7222L9.6615 11.7828L10.7222 12.8435ZM16.3837 18.505L15.323 19.5656L16.3837 20.6263L17.4443 19.5656L16.3837 18.505ZM18.505 16.3837L19.5656 17.4443L20.6263 16.3837L19.5656 15.323L18.505 16.3837ZM12.8435 10.7222L11.7828 9.6615L10.7222 10.7222L11.7828 11.7828L12.8435 10.7222ZM18.505 5.06065L19.5656 6.12131L20.6263 5.06065L19.5656 3.99999L18.505 5.06065ZM16.3837 2.93933L17.4443 1.87867L16.3837 0.818011L15.323 1.87867L16.3837 2.93933ZM10.7222 8.60084L9.6615 9.6615L10.7222 10.7222L11.7828 9.6615L10.7222 8.60084ZM5.06065 2.93933L6.12131 1.87867L5.06065 0.818011L3.99999 1.87867L5.06065 2.93933ZM2.93933 5.06065L1.87867 3.99999L0.818011 5.06065L1.87867 6.12131L2.93933 5.06065ZM3.99999 17.4443L9.6615 11.7828L7.54018 9.6615L1.87867 15.323L3.99999 17.4443ZM6.12131 17.4443L3.99999 15.323L1.87867 17.4443L3.99999 19.5656L6.12131 17.4443ZM9.6615 11.7828L3.99999 17.4443L6.12131 19.5656L11.7828 13.9041L9.6615 11.7828ZM17.4443 17.4443L11.7828 11.7828L9.6615 13.9041L15.323 19.5656L17.4443 17.4443ZM17.4443 15.323L15.323 17.4443L17.4443 19.5656L19.5656 17.4443L17.4443 15.323ZM11.7828 11.7828L17.4443 17.4443L19.5656 15.323L13.9041 9.6615L11.7828 11.7828ZM17.4443 3.99999L11.7828 9.6615L13.9041 11.7828L19.5656 6.12131L17.4443 3.99999ZM15.323 3.99999L17.4443 6.12131L19.5656 3.99999L17.4443 1.87867L15.323 3.99999ZM11.7828 9.6615L17.4443 3.99999L15.323 1.87867L9.6615 7.54018L11.7828 9.6615ZM3.99999 3.99999L9.6615 9.6615L11.7828 7.54018L6.12131 1.87867L3.99999 3.99999ZM3.99999 6.12131L6.12131 3.99999L3.99999 1.87867L1.87867 3.99999L3.99999 6.12131ZM9.6615 9.6615L3.99999 3.99999L1.87867 6.12131L7.54018 11.7828L9.6615 9.6615Z" fill="black"/>
</svg>
