<svg width="21" height="26" viewBox="0 0 21 26" fill="none" xmlns="http://www.w3.org/2000/svg">
<path fill-rule="evenodd" clip-rule="evenodd" d="M5.13867 21.2534V5.17864C5.13867 4.35982 5.8022 3.69629 6.62102 3.69629H17.4644C18.2832 3.69629 18.9468 4.35982 18.9468 5.17864V21.2534C18.9468 22.0717 18.2832 22.7358 17.4644 22.7358H6.62102C5.8022 22.7358 5.13867 22.0717 5.13867 21.2534Z" stroke="black" stroke-width="3"/>
<path fill-rule="evenodd" clip-rule="evenodd" d="M0 22.7507V3.67982C0 2.80348 0.658301 2.0657 1.52941 1.96688L11.1033 0.533673C12.126 0.417595 13.0222 1.2176 13.0222 2.24714V24.1839C13.0222 25.2134 12.126 26.0134 11.1033 25.8973L1.52941 24.4641C0.658301 24.3653 0 23.6281 0 22.7507Z" fill="black"/>
</svg>
