<svg width="25" height="22" viewBox="0 0 25 22" fill="none" xmlns="http://www.w3.org/2000/svg">
<path fill-rule="evenodd" clip-rule="evenodd" d="M17.5242 1.16943C16.3157 1.16943 15.2076 1.55215 14.231 2.30774C13.2947 3.03181 12.6713 3.95418 12.3045 4.62469C11.9374 3.95384 11.314 3.03181 10.3778 2.30774C9.40115 1.55215 8.29335 1.16943 7.08488 1.16943C3.71234 1.16943 1.16895 3.92808 1.16895 7.58604C1.16895 11.5379 4.34183 14.2416 9.14522 18.3352C9.96081 19.0301 10.8856 19.8182 11.8462 20.6586C11.973 20.7694 12.1357 20.8305 12.3045 20.8305C12.4734 20.8305 12.6361 20.7694 12.7625 20.6586C13.7235 19.8179 14.6483 19.0301 15.4642 18.3345C20.2669 14.2416 23.4398 11.5379 23.4398 7.58604C23.4398 3.92808 20.8967 1.16943 17.5242 1.16943Z" stroke="white" stroke-width="2"/>
<path d="M19.5055 9.74906C20.4353 7.91449 19.7027 5.67754 17.8682 4.74805" stroke="white" stroke-linecap="round" stroke-linejoin="round"/>
</svg>
