<svg width="100" height="50" viewBox="0 0 100 50" fill="none" xmlns="http://www.w3.org/2000/svg">
<g clip-path="url(#clip0)">
<g filter="url(#filter0_d)">
<path fill-rule="evenodd" clip-rule="evenodd" d="M0 8C0 3.58172 3.58172 0 8 0H92C96.4183 0 100 3.58172 100 8V17C96.134 17 93 20.134 93 24C93 27.866 96.134 31 100 31V42C100 46.4183 96.4183 50 92 50H8C3.58172 50 0 46.4183 0 42V31C3.86599 31 7 27.866 7 24C7 20.134 3.86599 17 0 17V8Z" fill="#7447EA"/>
</g>
<path d="M41.7215 15.692C42.4042 15.852 42.9322 16.1827 43.3055 16.684C43.6895 17.1747 43.8815 17.7453 43.8815 18.396C43.8815 19.388 43.5508 20.156 42.8895 20.7C42.2388 21.2333 41.3002 21.5 40.0735 21.5H34.1375V10.172H39.9135C41.0655 10.172 41.9722 10.4227 42.6335 10.924C43.2948 11.4253 43.6255 12.156 43.6255 13.116C43.6255 13.7773 43.4495 14.3373 43.0975 14.796C42.7562 15.244 42.2975 15.5427 41.7215 15.692ZM37.6895 14.588H39.0655C39.3855 14.588 39.6202 14.524 39.7695 14.396C39.9295 14.268 40.0095 14.0707 40.0095 13.804C40.0095 13.5267 39.9295 13.324 39.7695 13.196C39.6202 13.0573 39.3855 12.988 39.0655 12.988H37.6895V14.588ZM39.3055 18.652C39.6255 18.652 39.8602 18.5933 40.0095 18.476C40.1695 18.348 40.2495 18.1453 40.2495 17.868C40.2495 17.324 39.9348 17.052 39.3055 17.052H37.6895V18.652H39.3055ZM48.147 10.172V16.556C48.147 17.0787 48.259 17.4947 48.483 17.804C48.7177 18.1027 49.091 18.252 49.603 18.252C50.115 18.252 50.4937 18.1027 50.739 17.804C50.9843 17.4947 51.107 17.0787 51.107 16.556V10.172H54.643V16.556C54.643 17.6333 54.419 18.556 53.971 19.324C53.523 20.0813 52.9097 20.652 52.131 21.036C51.3523 21.42 50.483 21.612 49.523 21.612C48.563 21.612 47.7097 21.42 46.963 21.036C46.227 20.652 45.651 20.0813 45.235 19.324C44.819 18.5667 44.611 17.644 44.611 16.556V10.172H48.147ZM66.655 10.172L62.591 18.06V21.5H59.039V18.06L54.975 10.172H59.039L60.847 14.188L62.655 10.172H66.655ZM26.9507 26.172V28.988H23.9427V37.5H20.3907V28.988H17.4147V26.172H26.9507ZM31.0661 26.172V37.5H27.5141V26.172H31.0661ZM31.9503 31.82C31.9503 30.7 32.1743 29.7027 32.6223 28.828C33.081 27.9533 33.7316 27.276 34.5743 26.796C35.417 26.3053 36.409 26.06 37.5503 26.06C38.5316 26.06 39.4063 26.2467 40.1743 26.62C40.953 26.9827 41.5823 27.5 42.0623 28.172C42.553 28.844 42.8783 29.628 43.0383 30.524H39.2943C39.1236 30.1507 38.8783 29.8627 38.5583 29.66C38.249 29.4467 37.8916 29.34 37.4863 29.34C36.889 29.34 36.4143 29.564 36.0623 30.012C35.721 30.46 35.5503 31.0627 35.5503 31.82C35.5503 32.5773 35.721 33.18 36.0623 33.628C36.4143 34.076 36.889 34.3 37.4863 34.3C37.8916 34.3 38.249 34.1987 38.5583 33.996C38.8783 33.7827 39.1236 33.4893 39.2943 33.116H43.0383C42.8783 34.012 42.553 34.796 42.0623 35.468C41.5823 36.14 40.953 36.6627 40.1743 37.036C39.4063 37.3987 38.5316 37.58 37.5503 37.58C36.409 37.58 35.417 37.34 34.5743 36.86C33.7316 36.3693 33.081 35.6867 32.6223 34.812C32.1743 33.9373 31.9503 32.94 31.9503 31.82ZM50.7652 37.5L47.4692 32.588V37.5H43.9172V26.172H47.4692V30.94L50.7172 26.172H54.7332L50.8292 31.596L54.9892 37.5H50.7652ZM59.1473 29.004V30.396H62.6673V33.068H59.1473V34.668H63.1473V37.5H55.5953V26.172H63.1473V29.004H59.1473ZM72.9819 26.172V28.988H69.9739V37.5H66.4219V28.988H63.4459V26.172H72.9819ZM77.9773 37.612C76.6226 37.612 75.5026 37.2973 74.6173 36.668C73.7426 36.028 73.268 35.0947 73.1933 33.868H76.9693C77.0226 34.5187 77.3106 34.844 77.8333 34.844C78.0253 34.844 78.1853 34.8013 78.3133 34.716C78.452 34.62 78.5213 34.476 78.5213 34.284C78.5213 34.0173 78.3773 33.804 78.0893 33.644C77.8013 33.4733 77.3533 33.2813 76.7453 33.068C76.02 32.812 75.4173 32.5613 74.9373 32.316C74.468 32.0707 74.0626 31.7133 73.7213 31.244C73.38 30.7747 73.2146 30.172 73.2253 29.436C73.2253 28.7 73.412 28.076 73.7853 27.564C74.1693 27.0413 74.6866 26.6467 75.3373 26.38C75.9986 26.1133 76.74 25.98 77.5613 25.98C78.948 25.98 80.0466 26.3 80.8573 26.94C81.6786 27.58 82.1106 28.4813 82.1533 29.644H78.3293C78.3186 29.324 78.2386 29.0947 78.0893 28.956C77.94 28.8173 77.7586 28.748 77.5453 28.748C77.396 28.748 77.2733 28.8013 77.1773 28.908C77.0813 29.004 77.0333 29.1427 77.0333 29.324C77.0333 29.58 77.172 29.7933 77.4493 29.964C77.7373 30.124 78.1906 30.3213 78.8093 30.556C79.524 30.8227 80.1106 31.0787 80.5693 31.324C81.0386 31.5693 81.444 31.9107 81.7853 32.348C82.1266 32.7853 82.2973 33.3347 82.2973 33.996C82.2973 34.6893 82.1266 35.3133 81.7853 35.868C81.444 36.412 80.948 36.8387 80.2973 37.148C79.6466 37.4573 78.8733 37.612 77.9773 37.612Z" fill="white"/>
<path opacity="0.3" d="M12.5 5.5V44.5" stroke="#462796" stroke-width="1.5" stroke-linecap="round" stroke-dasharray="4"/>
<path opacity="0.3" d="M88 5.5V44.5" stroke="#462796" stroke-width="1.5" stroke-linecap="round" stroke-dasharray="4"/>
</g>
<defs>
<filter id="filter0_d" x="-3" y="-2" width="106" height="56" filterUnits="userSpaceOnUse" color-interpolation-filters="sRGB">
<feFlood flood-opacity="0" result="BackgroundImageFix"/>
<feColorMatrix in="SourceAlpha" type="matrix" values="0 0 0 0 0 0 0 0 0 0 0 0 0 0 0 0 0 0 127 0"/>
<feOffset dy="1"/>
<feGaussianBlur stdDeviation="1.5"/>
<feColorMatrix type="matrix" values="0 0 0 0 0 0 0 0 0 0 0 0 0 0 0 0 0 0 0.5 0"/>
<feBlend mode="normal" in2="BackgroundImageFix" result="effect1_dropShadow"/>
<feBlend mode="normal" in="SourceGraphic" in2="effect1_dropShadow" result="shape"/>
</filter>
<clipPath id="clip0">
<rect width="100" height="50" fill="white"/>
</clipPath>
</defs>
</svg>
