<svg width="153" height="66" viewBox="0 0 153 66" fill="none" xmlns="http://www.w3.org/2000/svg">
<g clip-path="url(#clip0)">
<path fill-rule="evenodd" clip-rule="evenodd" d="M90.8396 32.1752V10.2398L85.6308 0L8.1206 10.2398V32.1752L0 58.8295L8.1206 66H153V32.1752L147.84 21.9665L90.8396 32.1752Z" fill="#020303"/>
<path fill-rule="evenodd" clip-rule="evenodd" d="M83.2169 23.0297V1H1V23.0297V53.973V57H145V23.0297H83.2169Z" fill="#FEFEFE"/>
<path fill-rule="evenodd" clip-rule="evenodd" d="M83.2169 23.0297V1H1V23.0297V53.973V57H145V23.0297H83.2169Z" stroke="#020303" stroke-width="3"/>
<path d="M26.12 11.84V15.36H22.36V26H17.92V15.36H14.2V11.84H26.12ZM34.2242 26.14C32.8909 26.14 31.6642 25.8267 30.5442 25.2C29.4376 24.5733 28.5576 23.7067 27.9042 22.6C27.2509 21.4933 26.9242 20.2467 26.9242 18.86C26.9242 17.4733 27.2509 16.2267 27.9042 15.12C28.5576 14.0133 29.4376 13.1533 30.5442 12.54C31.6642 11.9133 32.8909 11.6 34.2242 11.6C35.5576 11.6 36.7776 11.9133 37.8842 12.54C38.9909 13.1533 39.8642 14.0133 40.5042 15.12C41.1576 16.2267 41.4842 17.4733 41.4842 18.86C41.4842 20.2467 41.1576 21.4933 40.5042 22.6C39.8642 23.7067 38.9842 24.5733 37.8642 25.2C36.7576 25.8267 35.5442 26.14 34.2242 26.14ZM34.2242 22C35.1042 22 35.7842 21.72 36.2642 21.16C36.7442 20.5867 36.9842 19.82 36.9842 18.86C36.9842 17.8867 36.7442 17.12 36.2642 16.56C35.7842 15.9867 35.1042 15.7 34.2242 15.7C33.3309 15.7 32.6442 15.9867 32.1642 16.56C31.6842 17.12 31.4442 17.8867 31.4442 18.86C31.4442 19.82 31.6842 20.5867 32.1642 21.16C32.6442 21.72 33.3309 22 34.2242 22ZM47.4259 11.84V19.82C47.4259 20.4733 47.5659 20.9933 47.8459 21.38C48.1393 21.7533 48.6059 21.94 49.2459 21.94C49.8859 21.94 50.3593 21.7533 50.6659 21.38C50.9726 20.9933 51.1259 20.4733 51.1259 19.82V11.84H55.5459V19.82C55.5459 21.1667 55.2659 22.32 54.7059 23.28C54.1459 24.2267 53.3793 24.94 52.4059 25.42C51.4326 25.9 50.3459 26.14 49.1459 26.14C47.9459 26.14 46.8793 25.9 45.9459 25.42C45.0259 24.94 44.3059 24.2267 43.7859 23.28C43.2659 22.3333 43.0059 21.18 43.0059 19.82V11.84H47.4259ZM64.5809 26L61.9209 20.92H61.9009V26H57.4609V11.84H64.0609C65.2076 11.84 66.1876 12.0467 67.0009 12.46C67.8143 12.86 68.4209 13.4133 68.8209 14.12C69.2343 14.8133 69.4409 15.6 69.4409 16.48C69.4409 17.4267 69.1743 18.2667 68.6409 19C68.1209 19.7333 67.3676 20.26 66.3809 20.58L69.4609 26H64.5809ZM61.9009 17.96H63.6609C64.0876 17.96 64.4076 17.8667 64.6209 17.68C64.8343 17.48 64.9409 17.1733 64.9409 16.76C64.9409 16.3867 64.8276 16.0933 64.6009 15.88C64.3876 15.6667 64.0743 15.56 63.6609 15.56H61.9009V17.96Z" fill="#020303"/>
<path d="M19.44 44.64H23.72V48H15V33.84H19.44V44.64ZM32.0172 48.14C30.6839 48.14 29.4572 47.8267 28.3372 47.2C27.2305 46.5733 26.3505 45.7067 25.6972 44.6C25.0439 43.4933 24.7172 42.2467 24.7172 40.86C24.7172 39.4733 25.0439 38.2267 25.6972 37.12C26.3505 36.0133 27.2305 35.1533 28.3372 34.54C29.4572 33.9133 30.6839 33.6 32.0172 33.6C33.3505 33.6 34.5705 33.9133 35.6772 34.54C36.7839 35.1533 37.6572 36.0133 38.2972 37.12C38.9505 38.2267 39.2772 39.4733 39.2772 40.86C39.2772 42.2467 38.9505 43.4933 38.2972 44.6C37.6572 45.7067 36.7772 46.5733 35.6572 47.2C34.5505 47.8267 33.3372 48.14 32.0172 48.14ZM32.0172 44C32.8972 44 33.5772 43.72 34.0572 43.16C34.5372 42.5867 34.7772 41.82 34.7772 40.86C34.7772 39.8867 34.5372 39.12 34.0572 38.56C33.5772 37.9867 32.8972 37.7 32.0172 37.7C31.1239 37.7 30.4372 37.9867 29.9572 38.56C29.4772 39.12 29.2372 39.8867 29.2372 40.86C29.2372 41.82 29.4772 42.5867 29.9572 43.16C30.4372 43.72 31.1239 44 32.0172 44ZM40.4789 40.9C40.4789 39.5 40.7589 38.2533 41.3189 37.16C41.8922 36.0667 42.7056 35.22 43.7589 34.62C44.8122 34.0067 46.0522 33.7 47.4789 33.7C48.7056 33.7 49.7989 33.9333 50.7589 34.4C51.7322 34.8533 52.5189 35.5 53.1189 36.34C53.7322 37.18 54.1389 38.16 54.3389 39.28H49.6589C49.4456 38.8133 49.1389 38.4533 48.7389 38.2C48.3522 37.9333 47.9056 37.8 47.3989 37.8C46.6522 37.8 46.0589 38.08 45.6189 38.64C45.1922 39.2 44.9789 39.9533 44.9789 40.9C44.9789 41.8467 45.1922 42.6 45.6189 43.16C46.0589 43.72 46.6522 44 47.3989 44C47.9056 44 48.3522 43.8733 48.7389 43.62C49.1389 43.3533 49.4456 42.9867 49.6589 42.52H54.3389C54.1389 43.64 53.7322 44.62 53.1189 45.46C52.5189 46.3 51.7322 46.9533 50.7589 47.42C49.7989 47.8733 48.7056 48.1 47.4789 48.1C46.0522 48.1 44.8122 47.8 43.7589 47.2C42.7056 46.5867 41.8922 45.7333 41.3189 44.64C40.7589 43.5467 40.4789 42.3 40.4789 40.9ZM65.0175 45.86H60.2975L59.5975 48H54.9375L60.1175 33.84H65.2375L70.3975 48H65.7175L65.0175 45.86ZM63.9375 42.52L62.6575 38.58L61.3775 42.52H63.9375ZM82.5263 33.84V37.36H78.7663V48H74.3263V37.36H70.6063V33.84H82.5263ZM88.1705 33.84V48H83.7305V33.84H88.1705ZM97.0758 48.14C95.7424 48.14 94.5158 47.8267 93.3958 47.2C92.2891 46.5733 91.4091 45.7067 90.7558 44.6C90.1024 43.4933 89.7758 42.2467 89.7758 40.86C89.7758 39.4733 90.1024 38.2267 90.7558 37.12C91.4091 36.0133 92.2891 35.1533 93.3958 34.54C94.5158 33.9133 95.7424 33.6 97.0758 33.6C98.4091 33.6 99.6291 33.9133 100.736 34.54C101.842 35.1533 102.716 36.0133 103.356 37.12C104.009 38.2267 104.336 39.4733 104.336 40.86C104.336 42.2467 104.009 43.4933 103.356 44.6C102.716 45.7067 101.836 46.5733 100.716 47.2C99.6091 47.8267 98.3958 48.14 97.0758 48.14ZM97.0758 44C97.9558 44 98.6358 43.72 99.1158 43.16C99.5958 42.5867 99.8358 41.82 99.8358 40.86C99.8358 39.8867 99.5958 39.12 99.1158 38.56C98.6358 37.9867 97.9558 37.7 97.0758 37.7C96.1824 37.7 95.4958 37.9867 95.0158 38.56C94.5358 39.12 94.2958 39.8867 94.2958 40.86C94.2958 41.82 94.5358 42.5867 95.0158 43.16C95.4958 43.72 96.1824 44 97.0758 44ZM119.518 48H115.078L110.378 40.88V48H105.938V33.84H110.378L115.078 41.08V33.84H119.518V48ZM127.063 48.14C125.37 48.14 123.97 47.7467 122.863 46.96C121.77 46.16 121.177 44.9933 121.083 43.46H125.803C125.87 44.2733 126.23 44.68 126.883 44.68C127.123 44.68 127.323 44.6267 127.483 44.52C127.657 44.4 127.743 44.22 127.743 43.98C127.743 43.6467 127.563 43.38 127.203 43.18C126.843 42.9667 126.283 42.7267 125.523 42.46C124.617 42.14 123.863 41.8267 123.263 41.52C122.677 41.2133 122.17 40.7667 121.743 40.18C121.317 39.5933 121.11 38.84 121.123 37.92C121.123 37 121.357 36.22 121.823 35.58C122.303 34.9267 122.95 34.4333 123.763 34.1C124.59 33.7667 125.517 33.6 126.543 33.6C128.277 33.6 129.65 34 130.663 34.8C131.69 35.6 132.23 36.7267 132.283 38.18H127.503C127.49 37.78 127.39 37.4933 127.203 37.32C127.017 37.1467 126.79 37.06 126.523 37.06C126.337 37.06 126.183 37.1267 126.063 37.26C125.943 37.38 125.883 37.5533 125.883 37.78C125.883 38.1 126.057 38.3667 126.403 38.58C126.763 38.78 127.33 39.0267 128.103 39.32C128.997 39.6533 129.73 39.9733 130.303 40.28C130.89 40.5867 131.397 41.0133 131.823 41.56C132.25 42.1067 132.463 42.7933 132.463 43.62C132.463 44.4867 132.25 45.2667 131.823 45.96C131.397 46.64 130.777 47.1733 129.963 47.56C129.15 47.9467 128.183 48.14 127.063 48.14Z" fill="#020303"/>
</g>
<defs>
<clipPath id="clip0">
<rect width="153" height="66" fill="white"/>
</clipPath>
</defs>
</svg>
