<svg width="166" height="146" viewBox="0 0 166 146" fill="none" xmlns="http://www.w3.org/2000/svg">
<path fill-rule="evenodd" clip-rule="evenodd" d="M18.0041 66.3616C18.1239 66.2807 18.224 66.2545 18.3556 66.2269C18.3798 66.2222 18.3922 66.2191 18.4077 66.2155C18.3941 66.2234 18.4042 66.2315 18.4975 66.2324C18.5274 66.2327 18.5439 66.2306 18.5554 66.2286C18.5629 66.2366 18.5755 66.2478 18.604 66.2652C18.6829 66.3144 18.697 66.3185 18.6898 66.3089C18.6962 66.3137 18.6985 66.3158 18.7062 66.3222C18.7132 66.3277 18.865 66.475 18.8404 66.4394C18.9899 66.6132 19.0158 66.6849 19.0799 66.8593C19.1869 67.1496 19.2106 67.4269 19.1425 67.7491C19.1038 67.9318 18.8416 68.3371 18.5881 68.5431C18.3051 68.7731 17.9886 68.9366 17.6526 69.0541C17.6167 68.9457 17.5751 68.8395 17.5434 68.7295C17.2863 67.8345 17.3036 66.8334 18.0041 66.3616ZM9.87745 63.4211C10.317 62.8622 11.0386 62.5728 11.6893 62.7911C11.8585 62.8477 12.1183 63.0569 12.2679 63.2751C12.449 63.5392 12.5421 63.8211 12.547 64.1774C12.5412 64.1979 12.5292 64.3642 12.5291 64.366C12.5284 64.3702 12.4674 64.5847 12.4859 64.546C12.4212 64.7167 12.3754 64.7869 12.2521 64.9217C12.0254 65.17 11.653 65.3533 11.3208 65.4341C10.7503 65.5724 10.1863 65.5345 9.64875 65.3751C9.48802 64.686 9.48951 63.915 9.87745 63.4211ZM29.4031 78.0547C25.2155 77.0433 20.9448 75.2092 18.4451 71.5455C18.2923 71.3216 18.1491 71.0913 18.0131 70.8566C19.0234 70.4807 19.9775 69.7543 20.3604 68.7368C20.7894 67.5953 20.5054 66.2546 19.6451 65.3806C18.7511 64.4728 17.3033 64.4654 16.3359 65.2548C15.1675 66.2077 14.9618 67.7093 15.2945 69.1067C15.3179 69.2043 15.3457 69.3011 15.3724 69.398C14.7287 69.3598 13.9658 69.2045 13.4203 68.9964C12.4626 68.6305 11.5937 68.0746 10.9398 67.3456C11.0273 67.3457 11.1142 67.3492 11.2022 67.3448C12.4875 67.2847 13.8103 66.6554 14.4077 65.4821C14.9445 64.4281 14.7331 63.059 14.0237 62.1298C12.2928 59.8641 8.78577 60.9245 8.04899 63.4733C7.97985 63.7126 7.94031 63.9537 7.91544 64.1955C7.40727 63.7178 6.9763 63.1557 6.6627 62.5781C5.55449 60.5344 5.55266 58.0378 5.67791 55.7858C5.70551 55.2882 5.45831 54.8096 4.9213 54.7146C4.47105 54.6349 3.87302 54.9606 3.84513 55.4616C3.6952 58.1532 3.72167 60.9792 5.02817 63.4251C5.76964 64.8136 6.94773 66.0332 8.36609 66.7315C8.91175 67.9583 9.8648 69.0462 10.9133 69.7538C12.4216 70.7721 14.2715 71.3393 16.0915 71.2366C16.9155 72.856 18.1579 74.2994 19.5125 75.4502C21.6867 77.2956 24.3124 78.4809 27.0231 79.3135C27.7035 79.5226 28.3916 79.7059 29.0835 79.873C29.5723 79.9913 30.0772 79.5954 30.1597 79.126C30.2506 78.6084 29.8934 78.1733 29.4031 78.0547Z" fill="#FFCEE7"/>
<path fill-rule="evenodd" clip-rule="evenodd" d="M141.593 40.9422C141.579 40.7498 141.616 40.6169 141.671 40.4466C141.682 40.4156 141.686 40.3992 141.693 40.3789C141.693 40.3999 141.709 40.3937 141.772 40.2866C141.792 40.2523 141.801 40.2318 141.806 40.2172C141.82 40.2139 141.841 40.207 141.88 40.1856C141.99 40.1275 142.004 40.114 141.988 40.1159C141.998 40.1117 142.002 40.1105 142.014 40.1058C142.025 40.1015 142.296 40.0247 142.239 40.0293C142.539 39.973 142.639 39.991 142.883 40.0335C143.289 40.1041 143.625 40.262 143.952 40.556C144.137 40.7227 144.431 41.296 144.5 41.7261C144.578 42.2063 144.556 42.6807 144.469 43.1468C144.32 43.1158 144.169 43.0929 144.021 43.0559C142.817 42.7545 141.672 42.0656 141.593 40.9422ZM132.781 48.3661C132.428 47.4851 132.573 46.4588 133.258 45.8536C133.436 45.6963 133.85 45.5361 134.202 45.5093C134.628 45.4768 135.015 45.5578 135.43 45.7904C135.45 45.8106 135.634 45.9357 135.636 45.937C135.64 45.9407 135.847 46.1545 135.815 46.1073C135.969 46.296 136.02 46.3958 136.094 46.6283C136.23 47.0559 136.194 47.6082 136.066 48.0457C135.847 48.7967 135.428 49.4224 134.886 49.9362C133.983 49.6611 133.094 49.144 132.781 48.3661ZM162.683 35.6005C158.73 39.7592 153.77 43.4636 147.874 43.8999C147.513 43.9266 147.152 43.9378 146.79 43.938C147.028 42.5202 146.823 40.9328 145.902 39.8103C144.868 38.5518 143.13 37.9832 141.548 38.392C139.905 38.8172 138.933 40.4839 139.202 42.1287C139.526 44.1149 141.124 45.3564 142.96 45.9068C143.089 45.9449 143.219 45.9776 143.349 46.0116C142.876 46.7291 142.19 47.5062 141.586 47.9969C140.527 48.8579 139.306 49.4895 138.029 49.757C138.087 49.656 138.149 49.558 138.203 49.4534C138.988 47.9293 139.141 45.9811 138.182 44.5069C137.321 43.1824 135.599 42.5109 134.053 42.7087C130.284 43.1922 129.177 47.9504 131.632 50.5053C131.862 50.7452 132.115 50.952 132.378 51.1425C131.488 51.4098 130.551 51.5315 129.675 51.5073C126.577 51.4203 123.691 49.753 121.172 48.1025C120.615 47.738 119.898 47.7033 119.431 48.2598C119.039 48.7264 119.018 49.6347 119.578 50.0018C122.589 51.9748 125.872 53.8338 129.567 53.9609C131.665 54.0333 133.857 53.4885 135.608 52.3179C137.388 52.5082 139.279 52.1352 140.794 51.3978C142.974 50.3373 144.86 48.5807 145.951 46.4108C148.371 46.5422 150.865 46.0729 153.096 45.2784C156.674 44.0021 159.79 41.7631 162.555 39.1902C163.249 38.5444 163.919 37.8725 164.572 37.1853C165.034 36.7001 164.912 35.8524 164.424 35.4433C163.887 34.9922 163.146 35.1137 162.683 35.6005Z" fill="#FFCEE7"/>
<path d="M140.964 93.134C139.121 93.6096 137.279 94.0852 135.436 94.561L134.11 89.177L128.584 90.6052L127.108 85.134" stroke="#FFCEE7" stroke-width="2"/>
<path fill-rule="evenodd" clip-rule="evenodd" d="M46.3024 85.9574L27.4214 75.0565C25.6815 74.052 25.0868 71.8275 26.0904 70.0892L29.9522 63.4003C30.7168 62.0761 32.2278 61.3717 33.7335 61.6364L56.5808 65.6674C59.0674 66.1058 60.3606 68.8805 59.0988 71.0661L51.2697 84.6264C50.2661 86.3648 48.0407 86.9611 46.3024 85.9574Z" fill="#BAC8D1"/>
<mask id="mask0" mask-type="alpha" maskUnits="userSpaceOnUse" x="84" y="88" width="38" height="35">
<path fill-rule="evenodd" clip-rule="evenodd" d="M96.0007 88.1694L121.179 102.706L109.712 122.567L84.534 108.03L96.0007 88.1694Z" fill="white"/>
</mask>
<g mask="url(#mask0)">
<path fill-rule="evenodd" clip-rule="evenodd" d="M87.6831 109.849L106.564 120.75C108.304 121.754 110.528 121.157 111.531 119.419L115.393 112.73C116.158 111.405 116.012 109.745 115.03 108.573L100.116 90.8022C98.4926 88.8679 95.4431 89.1353 94.1812 91.3209L86.3521 104.881C85.3485 106.62 85.9448 108.845 87.6831 109.849Z" fill="#BAC8D1"/>
</g>
<path fill-rule="evenodd" clip-rule="evenodd" d="M51.6114 101.728L70.7159 112.758C71.5945 113.265 71.9537 114.352 71.5483 115.284L67.4464 125.701C66.9711 126.793 65.6514 127.228 64.6201 126.633L42.6435 113.944C41.6122 113.349 41.3289 111.989 42.0372 111.031L49.0096 102.271C49.6133 101.454 50.7327 101.221 51.6114 101.728Z" fill="#848484"/>
<path d="M103.179 63.4528C103.269 69.4714 99.8201 74.3938 95.4689 74.4577" stroke="#FFB400" stroke-linecap="round"/>
<path d="M84.1315 52.4558C78.8757 55.3881 76.3372 60.8359 78.4559 64.6352" stroke="#FFB400" stroke-linecap="round"/>
<path fill-rule="evenodd" clip-rule="evenodd" d="M96.3635 75.8749C93.3735 81.0538 86.752 82.828 81.5732 79.838C76.3944 76.848 74.6186 70.2256 77.6086 65.0467C80.5986 59.8679 87.2217 58.0946 92.4005 61.0846C97.5793 64.0746 99.3535 70.6961 96.3635 75.8749Z" fill="#FFB400"/>
<path fill-rule="evenodd" clip-rule="evenodd" d="M93.8123 70.7238C93.4968 71.2702 92.7998 71.4556 92.255 71.1411C91.7102 70.8266 91.5223 70.1302 91.8377 69.5838C92.1523 69.039 92.8502 68.852 93.395 69.1666C93.9398 69.4811 94.1268 70.179 93.8123 70.7238Z" fill="black"/>
<path fill-rule="evenodd" clip-rule="evenodd" d="M85.747 66.0674C85.4315 66.6138 84.7345 66.7992 84.1897 66.4846C83.6449 66.1701 83.4585 65.4747 83.774 64.9283C84.0885 64.3835 84.7849 64.1956 85.3297 64.5101C85.8745 64.8246 86.0615 65.5226 85.747 66.0674Z" fill="black"/>
<path fill-rule="evenodd" clip-rule="evenodd" d="M81.4297 73.2293L81.936 72.3523C82.8787 70.7194 84.9865 70.156 86.6193 71.0987C88.2506 72.0405 88.8165 74.1476 87.8738 75.7804L87.3674 76.6575C87.2347 76.8874 86.9426 76.9643 86.7142 76.8325L81.6047 73.8825C81.3764 73.7507 81.2969 73.4592 81.4297 73.2293Z" fill="black"/>
<mask id="mask1" mask-type="alpha" maskUnits="userSpaceOnUse" x="81" y="70" width="8" height="7">
<path fill-rule="evenodd" clip-rule="evenodd" d="M81.9342 72.3529L81.4287 73.2284C81.296 73.4583 81.377 73.7507 81.6054 73.8825L86.7133 76.8316C86.9432 76.9643 87.2338 76.8865 87.3665 76.6566L87.872 75.7811C88.8156 74.1467 88.2522 72.039 86.6209 71.0971C84.9865 70.1535 82.8778 70.7185 81.9342 72.3529Z" fill="white"/>
</mask>
<g mask="url(#mask1)">
<path fill-rule="evenodd" clip-rule="evenodd" d="M81.1111 74.3739C81.9757 72.8765 83.8915 72.3618 85.3905 73.2273C86.8879 74.0918 87.4001 76.0083 86.5356 77.5058C85.671 79.0032 83.7552 79.5179 82.2578 78.6533C80.7588 77.7879 80.2466 75.8714 81.1111 74.3739Z" fill="#F991D9"/>
</g>
<path fill-rule="evenodd" clip-rule="evenodd" d="M79.1908 76.027C72.1617 71.966 69.7448 62.985 73.7929 55.9688C77.841 48.9525 86.8211 46.5581 93.8502 50.6191C100.879 54.6801 103.297 63.6596 99.2491 70.6758C95.201 77.692 86.22 80.088 79.1908 76.027ZM118.367 55.8051L111.552 28.173C111.444 26.7906 110.668 25.5369 109.462 24.8507C109.383 24.8052 109.302 24.7603 109.222 24.7204C108.111 24.1459 106.779 24.2071 105.652 24.7459L77.1043 31.9676C75.4486 32.7568 74.0724 34.0306 73.1572 35.6168L43.7208 86.6334C41.2129 90.9799 42.7109 96.5411 47.0641 99.0559L75.3208 115.38C79.6755 117.896 85.2362 116.412 87.744 112.066L117.18 61.0493C118.096 59.463 118.51 57.6336 118.367 55.8051Z" fill="#EEF8FF"/>
<path fill-rule="evenodd" clip-rule="evenodd" d="M79.1792 76.0387C72.1565 71.9841 69.7501 63.0031 73.8046 55.9805C77.8591 48.9578 86.8392 46.5529 93.8619 50.6074C100.885 54.662 103.292 63.6414 99.2374 70.6641C95.1829 77.6868 86.2019 80.0932 79.1792 76.0387Z" stroke="#9CCDFF" stroke-width="2"/>
<path fill-rule="evenodd" clip-rule="evenodd" d="M58.094 113.623C56.2297 112.546 55.5864 110.141 56.6618 108.278L66.6555 90.9684C67.7309 89.1056 70.136 88.4598 72.0003 89.5362C73.8647 90.6126 74.5079 93.0183 73.4325 94.8811L63.4389 112.191C62.3634 114.053 59.9583 114.699 58.094 113.623Z" fill="#BAC8D1"/>
<path fill-rule="evenodd" clip-rule="evenodd" d="M54.7904 19.945L39.0178 32.7167C37.2293 34.1649 36.9473 36.8032 38.3907 38.5797L45.5355 47.3709C46.9792 49.1472 49.6236 49.4156 51.4121 47.9673L56.1069 44.1657L60.9832 45.6509C62.0111 45.9639 63.0344 45.1353 62.9396 44.0666L62.4897 38.9974L67.1847 35.1957C68.9729 33.7476 69.2552 31.1091 67.8115 29.3328L60.667 20.5414C59.2233 18.7652 56.5788 18.4967 54.7904 19.945Z" fill="white"/>
<path d="M51.7293 29.0552L55.716 34.3727L53.6783 36.0825L49.1339 31.233L51.7293 29.0552ZM57.2978 38.327C56.8832 38.675 56.4577 38.8431 56.0215 38.8314C55.5853 38.8198 55.2262 38.6459 54.9442 38.3099C54.6562 37.9667 54.5444 37.5793 54.6086 37.1477C54.6669 36.7089 54.9034 36.3155 55.3181 35.9676C55.7256 35.6256 56.1505 35.464 56.5927 35.4829C57.0289 35.4945 57.391 35.6719 57.679 36.0151C57.9609 36.3512 58.0698 36.735 58.0055 37.1666C57.9413 37.5982 57.7054 37.985 57.2978 38.327Z" fill="#FF6B41"/>
</svg>
