<svg width="25" height="22" viewBox="0 0 25 22" fill="none" xmlns="http://www.w3.org/2000/svg">
<path fill-rule="evenodd" clip-rule="evenodd" d="M21.5891 20.9746H3.49203C2.26581 20.9746 1.26196 19.9708 1.26196 18.7445V3.49228C1.26196 2.26605 2.26581 1.26221 3.49203 1.26221H21.5891C22.8153 1.26221 23.8191 2.26605 23.8191 3.49228V18.7445C23.8191 19.9708 22.8153 20.9746 21.5891 20.9746Z" stroke="black" stroke-width="2"/>
<path d="M1.51343 7.71536H23.5681" stroke="black" stroke-width="2"/>
<path fill-rule="evenodd" clip-rule="evenodd" d="M5.99909 4.61818C5.99909 5.21975 5.51081 5.70804 4.90923 5.70804C4.30713 5.70804 3.81885 5.21975 3.81885 4.61818C3.81885 4.01661 4.30713 3.52832 4.90923 3.52832C5.51081 3.52832 5.99909 4.01661 5.99909 4.61818Z" fill="black"/>
<path fill-rule="evenodd" clip-rule="evenodd" d="M9.77082 4.61818C9.77082 5.21975 9.28253 5.70804 8.68044 5.70804C8.07834 5.70804 7.59058 5.21975 7.59058 4.61818C7.59058 4.01661 8.07834 3.52832 8.68044 3.52832C9.28253 3.52832 9.77082 4.01661 9.77082 4.61818Z" fill="black"/>
<path fill-rule="evenodd" clip-rule="evenodd" d="M13.1065 4.61818C13.1065 5.21975 12.6182 5.70804 12.0161 5.70804C11.414 5.70804 10.9263 5.21975 10.9263 4.61818C10.9263 4.01661 11.414 3.52832 12.0161 3.52832C12.6182 3.52832 13.1065 4.01661 13.1065 4.61818Z" fill="black"/>
<path fill-rule="evenodd" clip-rule="evenodd" d="M12.9681 16.1277L14.6947 18.1758L16.0982 17.002L14.3721 14.9539L16.7658 14.1022L9.44678 10.4424L11.702 18.2912L12.9681 16.1277Z" fill="black"/>
</svg>
