<svg id="Layer_1" data-name="Layer 1" xmlns="http://www.w3.org/2000/svg" viewBox="0 0 58 58"><defs><style>.cls-1{fill:#000;}</style></defs><path class="cls-1" d="M40.57,55.42A12.29,12.29,0,0,1,31,51.1a26.09,26.09,0,0,1-3.64-6.39c-1.84-4.36-1-9.75,1.89-12.54,1.35-1.29,4.32-3.13,9.05-.88l.93.47a5.52,5.52,0,0,0,1.35.58,5.52,5.52,0,0,0,1.35-.58l.93-.47c4.73-2.25,7.71-.4,9.06.91,2.92,2.8,3.72,8.17,1.87,12.5A27.68,27.68,0,0,1,50.17,51a12.16,12.16,0,0,1-9.5,4.39Zm-6.51-23a4.7,4.7,0,0,0-3.32,1.33c-2.3,2.2-2.9,6.55-1.39,10.12a23.08,23.08,0,0,0,3.32,5.86,10.37,10.37,0,0,0,8,3.53,10,10,0,0,0,7.83-3.58,24.5,24.5,0,0,0,3.3-5.83c1.52-3.53.93-7.87-1.37-10.08-1.67-1.6-4-1.78-6.63-.51l-.87.44a5.45,5.45,0,0,1-2.34.82,5.49,5.49,0,0,1-2.35-.82l-.87-.44A7.74,7.74,0,0,0,34.06,32.41Z"/><path class="cls-1" d="M31.68,52H6.08A2.86,2.86,0,0,1,3.23,49.1V15.22a1.09,1.09,0,1,1,2.17,0V49.1a.7.7,0,0,0,.68.68h25.6a1.09,1.09,0,0,1,0,2.17Z"/><path class="cls-1" d="M44,32.52a1.08,1.08,0,0,1-1.09-1.08v-26a.69.69,0,0,0-.68-.69H15.86a1.09,1.09,0,0,1,0-2.17H42.22a2.86,2.86,0,0,1,2.85,2.86v26A1.08,1.08,0,0,1,44,32.52Z"/><path class="cls-1" d="M14.09,16.3H4.31a1.09,1.09,0,0,1-.77-1.85L15.09,2.9A1.09,1.09,0,0,1,17,3.67v9.77A2.87,2.87,0,0,1,14.09,16.3ZM6.93,14.13h7.16a.69.69,0,0,0,.69-.69V6.29Z"/><path class="cls-1" d="M40.12,51.36a1.09,1.09,0,0,1,0-2.17,6.65,6.65,0,0,0,5.21-2.36,16.76,16.76,0,0,0,2.24-4,6.86,6.86,0,0,0,.54-3.15,1.08,1.08,0,0,1,1-1.15,1.12,1.12,0,0,1,1.15,1,9.13,9.13,0,0,1-.7,4.14A19.19,19.19,0,0,1,47,48.19a8.76,8.76,0,0,1-6.9,3.17Z"/><path class="cls-1" d="M40.57,34.51h0a1.08,1.08,0,0,1-1.08-1.09c0-.94-.17-4.1-2.79-5.47a1.1,1.1,0,0,1-.46-1.47A1.09,1.09,0,0,1,37.7,26c3.71,1.94,4,6.16,3.95,7.41A1.08,1.08,0,0,1,40.57,34.51Z"/><path class="cls-1" d="M36,21.94H11.76a1.09,1.09,0,0,1,0-2.17H36a1.09,1.09,0,0,1,0,2.17Z"/><path class="cls-1" d="M23.77,26.84H11.62a1.09,1.09,0,0,1,0-2.17H23.77a1.09,1.09,0,1,1,0,2.17Z"/><path class="cls-1" d="M23.67,31.74H11.52a1.09,1.09,0,0,1,0-2.17H23.67a1.09,1.09,0,1,1,0,2.17Z"/><path class="cls-1" d="M23.58,36.64H11.42a1.09,1.09,0,0,1,0-2.18H23.58a1.09,1.09,0,0,1,0,2.18Z"/><path class="cls-1" d="M36,17.05H20.92a1.09,1.09,0,1,1,0-2.17H36a1.09,1.09,0,0,1,0,2.17Z"/></svg>
