<svg id="Layer_1" data-name="Layer 1" xmlns="http://www.w3.org/2000/svg" viewBox="0 0 58 58"><defs><style>.cls-1{fill:#000;}</style></defs><path class="cls-1" d="M52.55,48.14H48.69V29.59h3.84a1.12,1.12,0,0,0,1.13-1.13V24.53a1.16,1.16,0,0,0-.38-.85L29.62,2.87a1.13,1.13,0,0,0-1.5,0L4.78,23.58a1.17,1.17,0,0,0-.46.92v4a1.13,1.13,0,0,0,1.13,1.13H9.32V48.14H5.47a1.14,1.14,0,0,0-1.14,1.13v5a1.14,1.14,0,0,0,1.14,1.13H52.55a1.14,1.14,0,0,0,1.13-1.13v-5A1.14,1.14,0,0,0,52.55,48.14ZM34.81,30.68V48.14H23.16V30.68ZM36,28.41H22a1.13,1.13,0,0,0-1.13,1.13v18.6H11.58V28.46a1.14,1.14,0,0,0-1.13-1.13H6.59V25L28.87,5.22,51.4,25v2.29H47.56a1.14,1.14,0,0,0-1.13,1.13V48.14H37.08V29.54A1.14,1.14,0,0,0,36,28.41ZM6.6,53.16V50.4H51.41v2.76Z"/></svg>
