<svg id="Layer_1" data-name="Layer 1" xmlns="http://www.w3.org/2000/svg" viewBox="0 0 58 58"><defs><style>.cls-1{fill:#000;}</style></defs><path class="cls-1" d="M49.3,40.21H31.45c-2.59,0-4.4-1.55-4.4-3.78V35.29c0-2.23,1.81-3.79,4.4-3.79H49.3c2.59,0,4.4,1.56,4.4,3.79v1.14C53.7,38.66,51.89,40.21,49.3,40.21ZM31.45,33.67c-.37,0-2.23.08-2.23,1.62v1.14c0,1.19,1.2,1.62,2.23,1.62H49.3c.37,0,2.23-.08,2.23-1.62V35.29c0-1.54-1.86-1.62-2.23-1.62Z"/><path class="cls-1" d="M46.28,47.47H31.45c-2.55,0-4.4-1.63-4.4-3.86V42.47c0-2.25,1.85-3.87,4.4-3.87H46.28c2.55,0,4.4,1.62,4.4,3.87v1.14C50.68,45.84,48.83,47.47,46.28,47.47Zm-14.83-6.7c-1.11,0-2.23.52-2.23,1.7v1.14c0,1.17,1.12,1.69,2.23,1.69H46.28c1.11,0,2.23-.52,2.23-1.69V42.47c0-1.26-1.2-1.7-2.23-1.7Z"/><path class="cls-1" d="M42.78,54.73H31.45c-2.55,0-4.4-1.63-4.4-3.87V49.72c0-2.24,1.85-3.86,4.4-3.86H42.78c2.55,0,4.4,1.62,4.4,3.86v1.14C47.18,53.1,45.33,54.73,42.78,54.73ZM31.45,48c-1.11,0-2.23.53-2.23,1.7v1.14c0,1.17,1.12,1.7,2.23,1.7H42.78c1.11,0,2.23-.53,2.23-1.7V49.72c0-1.25-1.2-1.7-2.23-1.7Z"/><path class="cls-1" d="M26.56,55.05H16.3C11.3,55.05,5,50.12,4.59,44l-.25-4.33c-.6-10,5.7-12.91,11.25-15.43,4.52-2.05,8.78-4,9.74-9.44a18.41,18.41,0,0,0-.75-8,3.09,3.09,0,0,1,2.28-3.55c2.44-.83,5.88.35,8.27,6.2,2,4.81,1.83,7.91-2.94,15.71a1.1,1.1,0,0,1-1.5.36A1.09,1.09,0,0,1,30.33,24c4.59-7.51,4.4-9.85,2.79-13.76-1.82-4.45-4.13-5.46-5.55-5-.68.23-.95.73-.9.92a20.37,20.37,0,0,1,.79,9c-1.15,6.59-6.14,8.86-11,11.05C10.86,28.76,6,31,6.51,39.53l.25,4.33c.31,5.23,5.92,9,9.54,9H26.56a7.22,7.22,0,0,0,2.8-.57,1.09,1.09,0,0,1,1.43.56,1.1,1.1,0,0,1-.57,1.43A9.18,9.18,0,0,1,26.56,55.05Z"/><path class="cls-1" d="M45.66,33H32.75c-2.6,0-4.41-1.56-4.41-3.79V28c0-2.19,1.89-3.78,4.49-3.78H45.66c2.59,0,4.4,1.55,4.4,3.78v1.14C50.06,31.4,48.25,33,45.66,33ZM32.83,26.42c-.86,0-2.32.34-2.32,1.61v1.14c0,1.2,1.21,1.62,2.24,1.62H45.66c.37,0,2.23-.08,2.23-1.62V28c0-1.54-1.86-1.61-2.23-1.61Z"/></svg>
