<svg id="Layer_1" data-name="Layer 1" xmlns="http://www.w3.org/2000/svg" viewBox="0 0 58 58"><defs><style>.cls-1{fill:#000;}</style></defs><path class="cls-1" d="M28.58,56.27A22.06,22.06,0,1,1,50.65,34.21,22.09,22.09,0,0,1,28.58,56.27Zm0-41.95a19.89,19.89,0,1,0,19.9,19.89A19.91,19.91,0,0,0,28.58,14.32Z"/><path class="cls-1" d="M26.14,14.32a1.09,1.09,0,0,1-1.09-1.09V8.48a1.09,1.09,0,1,1,2.17,0v4.75A1.08,1.08,0,0,1,26.14,14.32Z"/><path class="cls-1" d="M31,14.32a1.09,1.09,0,0,1-1.09-1.09V8.48a1.09,1.09,0,1,1,2.17,0v4.75A1.08,1.08,0,0,1,31,14.32Z"/><path class="cls-1" d="M45.12,21.83A1.09,1.09,0,0,1,44.35,20l4.51-4.5-1.53-1.54-4.51,4.51a1.1,1.1,0,0,1-1.54,0,1.09,1.09,0,0,1,0-1.53l5.28-5.28a1.09,1.09,0,0,1,1.53,0l3.07,3.07a1.07,1.07,0,0,1,0,1.53l-5.27,5.28A1.11,1.11,0,0,1,45.12,21.83Z"/><path class="cls-1" d="M15.86,35.29H11.3a1.09,1.09,0,1,1,0-2.17h4.56a1.09,1.09,0,1,1,0,2.17Z"/><path class="cls-1" d="M28.58,52.58A1.08,1.08,0,0,1,27.5,51.5V46.93a1.09,1.09,0,0,1,2.17,0V51.5A1.08,1.08,0,0,1,28.58,52.58Z"/><path class="cls-1" d="M45.87,35.29H41.31a1.09,1.09,0,1,1,0-2.17h4.56a1.09,1.09,0,1,1,0,2.17Z"/><path class="cls-1" d="M28.58,22.57a1.08,1.08,0,0,1-1.08-1.08V16.92a1.09,1.09,0,0,1,2.17,0v4.57A1.09,1.09,0,0,1,28.58,22.57Z"/><path class="cls-1" d="M28.58,38.38a4.17,4.17,0,1,1,4.17-4.17A4.17,4.17,0,0,1,28.58,38.38Zm0-6.17a2,2,0,1,0,2,2A2,2,0,0,0,28.58,32.21Z"/><path class="cls-1" d="M26.29,33.06a1.1,1.1,0,0,1-.77-.31l-8.38-8.39a1.09,1.09,0,0,1,1.54-1.53l8.38,8.38a1.1,1.1,0,0,1,0,1.54A1.08,1.08,0,0,1,26.29,33.06Z"/><path class="cls-1" d="M34.07,9h-11a2,2,0,0,1-2-2V3.76a2,2,0,0,1,2-2h11a2,2,0,0,1,2,2V7A2,2,0,0,1,34.07,9ZM23.24,6.85H33.93V3.9H23.24ZM34.07,3.9h0Z"/></svg>
